<svg width="126" height="46" viewBox="0 0 126 46" fill="none" xmlns="http://www.w3.org/2000/svg">
<rect width="46" height="46" rx="10" fill="url(#paint0_linear_67_330)" fill-opacity="0.3"/>
<path d="M18.8308 21.3344H16.2203C16.1726 20.9966 16.0753 20.6967 15.9283 20.4344C15.7812 20.1682 15.5925 19.9417 15.362 19.755C15.1316 19.5682 14.8654 19.4252 14.5634 19.3258C14.2654 19.2265 13.9416 19.1768 13.5919 19.1768C12.9601 19.1768 12.4098 19.3338 11.9409 19.6477C11.4721 19.9576 11.1085 20.4106 10.8502 21.0066C10.592 21.5986 10.4628 22.3178 10.4628 23.1641C10.4628 24.0343 10.592 24.7654 10.8502 25.3575C11.1125 25.9495 11.478 26.3965 11.9469 26.6985C12.4158 27.0005 12.9581 27.1515 13.574 27.1515C13.9197 27.1515 14.2396 27.1058 14.5336 27.0144C14.8316 26.923 15.0958 26.7899 15.3263 26.6151C15.5567 26.4362 15.7475 26.2197 15.8985 25.9654C16.0534 25.7111 16.1607 25.421 16.2203 25.0952L18.8308 25.1071C18.7633 25.6674 18.5944 26.2078 18.3242 26.7283C18.058 27.2448 17.6984 27.7077 17.2454 28.117C16.7964 28.5223 16.26 28.8441 15.6362 29.0825C15.0164 29.317 14.3151 29.4342 13.5323 29.4342C12.4436 29.4342 11.4701 29.1878 10.6118 28.6951C9.75755 28.2024 9.08207 27.4892 8.58539 26.5554C8.09269 25.6217 7.84634 24.4913 7.84634 23.1641C7.84634 21.833 8.09666 20.7006 8.59731 19.7669C9.09796 18.8331 9.77742 18.1219 10.6357 17.6332C11.4939 17.1404 12.4595 16.8941 13.5323 16.8941C14.2396 16.8941 14.8952 16.9934 15.4991 17.1921C16.1071 17.3908 16.6455 17.6808 17.1143 18.0623C17.5832 18.4398 17.9646 18.9027 18.2587 19.451C18.5567 19.9993 18.7474 20.6271 18.8308 21.3344ZM25.5032 20.1126V22.0198H19.9901V20.1126H25.5032ZM21.2417 17.9192H23.7807V26.4541C23.7807 26.6886 23.8165 26.8713 23.888 27.0025C23.9595 27.1296 24.0589 27.219 24.186 27.2707C24.3171 27.3223 24.4681 27.3481 24.639 27.3481C24.7582 27.3481 24.8774 27.3382 24.9966 27.3183C25.1158 27.2945 25.2072 27.2766 25.2707 27.2647L25.6701 29.1541C25.5429 29.1938 25.3641 29.2395 25.1337 29.2911C24.9032 29.3468 24.6231 29.3805 24.2933 29.3925C23.6814 29.4163 23.145 29.3349 22.6841 29.1481C22.2271 28.9614 21.8715 28.6713 21.6172 28.2779C21.3629 27.8846 21.2377 27.3879 21.2417 26.7879V17.9192ZM27.1571 29.2673V20.1126H29.6187V21.7099H29.714C29.8809 21.1417 30.161 20.7125 30.5544 20.4225C30.9478 20.1285 31.4007 19.9814 31.9133 19.9814C32.0404 19.9814 32.1775 19.9894 32.3245 20.0053C32.4716 20.0212 32.6007 20.043 32.712 20.0708V22.3238C32.5928 22.288 32.4279 22.2562 32.2173 22.2284C32.0067 22.2006 31.814 22.1867 31.6391 22.1867C31.2656 22.1867 30.9319 22.2681 30.6378 22.431C30.3478 22.59 30.1173 22.8125 29.9465 23.0986C29.7796 23.3847 29.6961 23.7145 29.6961 24.088V29.2673H27.1571ZM36.5637 17.061V29.2673H34.0247V17.061H36.5637Z" fill="white"/>
<path opacity="0.5" d="M61.8635 28.1656V20.2982H63.1985V28.1656H61.8635ZM58.5973 24.8994V23.5644H66.4647V24.8994H58.5973Z" fill="white"/>
<rect x="80" width="46" height="46" rx="10" fill="url(#paint1_linear_67_330)" fill-opacity="0.3"/>
<path d="M98.0609 29.2673V17.061H100.642V22.443H100.803L105.195 17.061H108.288L103.759 22.5264L108.342 29.2673H105.255L101.911 24.2489L100.642 25.7985V29.2673H98.0609Z" fill="white"/>
<defs>
<linearGradient id="paint0_linear_67_330" x1="0" y1="0" x2="67.5" y2="75" gradientUnits="userSpaceOnUse">
<stop stop-color="white"/>
<stop offset="1" stop-color="white" stop-opacity="0"/>
</linearGradient>
<linearGradient id="paint1_linear_67_330" x1="80" y1="0" x2="147.5" y2="75" gradientUnits="userSpaceOnUse">
<stop stop-color="white"/>
<stop offset="1" stop-color="white" stop-opacity="0"/>
</linearGradient>
</defs>
</svg>
